<?xml version="1.0" encoding="UTF-8" standalone="no"?>
<svg
   version="1.0"
   width="192.000000pt"
   height="192.000000pt"
   viewBox="0 0 192.000000 192.000000"
   preserveAspectRatio="xMidYMid meet"
   id="svg4"
   sodipodi:docname="icon2.svg"
   inkscape:version="1.4.3 (0d15f75, 2025-12-25)"
   xmlns:inkscape="http://www.inkscape.org/namespaces/inkscape"
   xmlns:sodipodi="http://sodipodi.sourceforge.net/DTD/sodipodi-0.dtd"
   xmlns="http://www.w3.org/2000/svg"
   xmlns:svg="http://www.w3.org/2000/svg">
  <defs
     id="defs4" />
  <sodipodi:namedview
     id="namedview4"
     pagecolor="#ffffff"
     bordercolor="#999999"
     borderopacity="1"
     inkscape:showpageshadow="0"
     inkscape:pageopacity="0"
     inkscape:pagecheckerboard="0"
     inkscape:deskcolor="#d1d1d1"
     inkscape:document-units="pt"
     showgrid="false"
     inkscape:zoom="4.59375"
     inkscape:cx="127.89116"
     inkscape:cy="128"
     inkscape:window-width="2560"
     inkscape:window-height="1369"
     inkscape:window-x="-8"
     inkscape:window-y="-8"
     inkscape:window-maximized="1"
     inkscape:current-layer="svg4" />
  <g
     transform="translate(0.000000,192.000000) scale(0.100000,-0.100000)"
     fill="#000000"
     stroke="none"
     id="g4">
    <path
       d="M852 1719 c-233 -34 -461 -199 -566 -411 -65 -132 -80 -199 -81 -343 0 -150 12 -201 82 -344 47 -96 68 -126 132 -190 281 -285 719 -308 1032 -56 115 93 215 251 256 405 24 89 23 282 -1 369 -84 305 -333 528 -640 570 -88 12 -125 12 -214 0z m-22 -469 l0 -160 -160 0 -160 0 0 160 0 160 160 0 160 0 0 -160z m190 125 c0 -32 -2 -35 -30 -35 -27 0 -30 -3 -30 -30 0 -27 3 -30 30 -30 27 0 30 -3 30 -30 l0 -30 -60 0 -60 0 0 60 0 60 30 0 c28 0 30 3 30 35 0 32 2 35 30 35 28 0 30 -3 30 -35z m390 -125 l0 -160 -160 0 -160 0 0 160 0 160 160 0 160 0 0 -160z m-390 -130 c0 -27 -3 -30 -30 -30 l-30 0 0 -65 0 -65 30 0 c27 0 30 3 30 30 0 28 3 30 35 30 l35 0 0 -95 0 -95 -35 0 c-32 0 -35 -2 -35 -30 l0 -30 100 0 101 0 -3 63 c-3 62 -3 62 -35 65 -29 3 -33 7 -33 33 0 27 3 29 35 29 32 0 35 2 35 30 0 27 3 30 30 30 l30 0 0 -60 0 -60 65 0 65 0 0 -101 0 -100 -32 3 c-33 3 -33 3 -36 66 -3 61 -3 62 -32 62 -27 0 -30 -3 -30 -30 0 -27 -3 -30 -30 -30 -28 0 -30 -3 -30 -35 0 -32 2 -35 30 -35 27 0 30 -3 30 -30 0 -27 3 -30 30 -30 27 0 30 -3 30 -30 0 -28 3 -30 35 -30 33 0 35 -2 35 -35 0 -33 -2 -35 -35 -35 -33 0 -35 2 -35 35 l0 35 -60 0 -60 0 0 -35 c0 -33 -2 -35 -35 -35 l-35 0 0 65 0 65 35 0 c32 0 35 2 35 30 l0 30 -65 0 -65 0 0 -95 0 -95 -35 0 c-33 0 -35 2 -35 35 l0 35 -60 0 -60 0 0 30 0 30 60 0 60 0 0 65 0 65 -30 0 c-28 0 -30 -3 -30 -35 0 -32 -2 -35 -30 -35 -28 0 -30 3 -30 35 0 32 2 35 30 35 27 0 30 3 30 30 0 27 3 30 30 30 28 0 30 3 30 35 0 32 -2 35 -30 35 -27 0 -30 3 -30 30 0 27 -3 30 -30 30 l-30 0 0 95 0 95 60 0 60 0 0 -30z m-440 -130 l0 -30 60 0 60 0 0 30 c0 28 3 30 35 30 32 0 35 -2 35 -30 0 -27 3 -30 30 -30 27 0 30 -3 30 -30 0 -27 -3 -30 -30 -30 -27 0 -30 3 -30 30 0 28 -3 30 -35 30 -32 0 -35 -2 -35 -30 l0 -30 -60 0 -60 0 0 30 c0 28 -3 30 -35 30 -32 0 -35 2 -35 30 0 28 3 30 35 30 32 0 35 -2 35 -30z m830 0 c0 -28 -3 -30 -35 -30 -32 0 -35 2 -35 30 0 28 3 30 35 30 32 0 35 -2 35 -30z m-580 -320 l0 -160 -160 0 -160 0 0 160 0 160 160 0 160 0 0 -160z"
       id="path1" />
    <path
       d="M580 1245 l0 -95 95 0 95 0 0 95 0 95 -95 0 -95 0 0 -95z m120 5 c0 -27 -3 -30 -30 -30 -27 0 -30 3 -30 30 0 27 3 30 30 30 27 0 30 -3 30 -30z"
       id="path2" />
    <path
       d="M1150 1245 l0 -95 95 0 95 0 0 95 0 95 -95 0 -95 0 0 -95z m130 5 c0 -27 -3 -30 -30 -30 -27 0 -30 3 -30 30 0 27 3 30 30 30 27 0 30 -3 30 -30z"
       id="path3" />
    <path
       d="M580 675 l0 -95 95 0 95 0 0 95 0 95 -95 0 -95 0 0 -95z m120 -5 c0 -27 -3 -30 -30 -30 -27 0 -30 3 -30 30 0 27 3 30 30 30 27 0 30 -3 30 -30z"
       id="path4" />
  </g>
  <path
     style="fill:#f9f9f9;stroke-width:1.75748;stroke-linecap:round"
     d="m 68.027211,89.360544 v -21.22449 h 21.22449 21.224489 v 21.22449 21.224486 H 89.251701 68.027211 Z m 34.829929,0.653061 V 77.278912 H 90.013605 77.170068 V 90.013605 102.7483 h 12.843537 12.843535 z"
     id="path5"
     transform="scale(0.75)" />
  <path
     style="fill:#f9f9f9;stroke-width:1.75748;stroke-linecap:round"
     d="m 86.575362,92.942019 c -0.864854,-0.347092 -1.189275,-1.54987 -1.096204,-4.064139 0.07222,-1.950865 0.144072,-2.29854 0.561278,-2.715746 0.958589,-0.958589 5.823582,-0.952933 6.601434,0.0077 0.481635,0.594795 0.73513,2.487998 0.569963,4.256729 -0.161559,1.730099 -0.294567,2.041164 -1.036926,2.425053 -0.701674,0.362849 -4.757547,0.42835 -5.599545,0.09043 z"
     id="path6"
     transform="scale(0.75)" />
  <path
     style="fill:#f9f9f9;stroke-width:1.75748;stroke-linecap:round"
     d="m 120.05442,85.360272 v -7.809796 l 3.21089,-0.09462 c 3.35116,-0.09875 3.98483,-0.256759 4.44,-1.107103 0.14273,-0.266644 0.32744,-1.905216 0.41046,-3.64127 0.083,-1.736054 0.22526,-3.331514 0.31608,-3.545466 0.31191,-0.734788 1.28912,-1.025963 3.44322,-1.025963 3.66905,0 3.96166,0.329618 3.96166,4.462585 0,4.323411 -0.13052,4.473943 -4.05199,4.673059 -2.42558,0.123161 -2.63026,0.168746 -3.16684,0.705326 -0.52362,0.523624 -0.58249,0.760259 -0.67502,2.713282 -0.12485,2.63528 0.15941,3.86552 0.99029,4.285865 0.32485,0.164344 1.71114,0.367346 3.08063,0.451117 1.36949,0.08377 2.66521,0.246085 2.87936,0.360698 0.75401,0.403534 0.92487,1.124995 1.0136,4.280041 l 0.0872,3.102041 h -7.96978 -7.96979 z"
     id="path7"
     transform="scale(0.75)" />
  <path
     style="fill:#f9f9f9;stroke-width:1.75748;stroke-linecap:round"
     d="m 145.52381,89.360544 v -21.22449 h 21.22449 21.22449 v 21.22449 21.224486 H 166.7483 145.52381 Z m 33.30612,0.653061 V 77.278912 H 165.98639 153.14286 V 90.013605 102.7483 h 12.84353 12.84354 z"
     id="path8"
     transform="scale(0.75)" />
  <path
     style="fill:#f9f9f9;stroke-width:1.75748;stroke-linecap:round"
     d="m 163.78091,92.841394 c -0.69903,-0.379818 -0.83318,-0.706131 -0.99274,-2.414858 -0.16517,-1.768731 0.0883,-3.661934 0.56996,-4.256729 0.77785,-0.960606 5.64285,-0.966262 6.60143,-0.0077 0.41721,0.417206 0.48907,0.764881 0.56128,2.715746 0.096,2.59217 -0.2259,3.719244 -1.16394,4.075886 -0.88617,0.33692 -4.89788,0.256073 -5.57599,-0.112372 z"
     id="path9"
     transform="scale(0.75)" />
  <path
     style="fill:#f9f9f9;stroke-width:1.75748;stroke-linecap:round"
     d="m 121.63379,162.38263 c -1.252,-0.38573 -1.47052,-1.01333 -1.47052,-4.22325 0,-2.95273 0.24244,-4.07605 0.9451,-4.37898 0.19856,-0.0856 1.51133,-0.22785 2.91727,-0.31611 1.75897,-0.11041 2.72312,-0.26979 3.09124,-0.511 0.69853,-0.45769 0.98925,-1.5699 0.99075,-3.79021 0.002,-2.37628 0.34489,-3.20642 1.45321,-3.51418 0.45855,-0.12733 1.64503,-0.23205 2.63663,-0.23272 2.14064,-0.002 3.20721,-0.37274 3.56878,-1.24239 0.14458,-0.34775 0.26076,-1.82358 0.27072,-3.4391 0.0265,-4.30033 -0.24935,-4.66171 -3.68323,-4.82488 -4.00894,-0.1905 -4.04407,-0.22316 -4.26756,-3.96707 -0.083,-1.39028 -0.22167,-2.70282 -0.30818,-2.91678 C 127.44513,128.20271 126.54489,128 123.22169,128 h -3.16727 V 115.37415 102.7483 h 7.96979 7.96978 l -0.0813,3.14407 c -0.0716,2.76847 -0.13533,3.21646 -0.53362,3.74992 -0.60715,0.81321 -1.0101,0.89578 -4.49472,0.92104 l -2.99319,0.0217 V 119.29252 128 h 3.32571 c 4.59893,0 4.66578,-0.0565 4.92214,-4.15912 0.23136,-3.70259 0.0156,-3.55007 5.14541,-3.63666 l 4.0217,-0.0679 v 12.5062 12.50619 l -3.87627,0.0805 c -5.49101,0.11403 -5.48427,0.1079 -5.48427,4.98902 v 3.03345 l -2.9932,0.0217 c -3.47827,0.0252 -3.88807,0.10851 -4.48816,0.91226 -0.38634,0.51747 -0.46278,1.03248 -0.57338,3.86337 -0.12334,3.15678 -0.1468,3.28547 -0.69954,3.83821 -0.5273,0.52731 -0.73881,0.57742 -2.71154,0.64246 -1.17679,0.0388 -2.45748,-0.0274 -2.84597,-0.14707 z"
     id="path10"
     transform="scale(0.75)" />
  <path
     style="fill:#f9f9f9;stroke-width:1.75748;stroke-linecap:round"
     d="m 77.387755,132.93044 c 0,-3.23641 -0.211761,-4.1537 -1.057614,-4.58131 -0.340524,-0.17215 -1.803855,-0.35229 -3.588137,-0.44171 -1.657204,-0.0831 -3.243084,-0.23846 -3.524179,-0.34533 -0.854372,-0.32483 -1.065452,-1.01307 -1.07392,-3.50157 -0.0127,-3.73145 0.313527,-3.98095 5.048663,-3.8612 3.965698,0.10029 3.845929,-0.0345 3.938402,4.43197 L 77.200715,128 h 8.132618 8.132617 l 0.06975,-3.36871 c 0.09247,-4.46646 -0.02729,-4.33168 3.938402,-4.43197 3.335678,-0.0844 4.313868,0.12209 4.719138,0.99595 0.15321,0.33036 0.34605,1.75423 0.42854,3.16415 0.19796,3.38377 0.2314,3.41956 3.42921,3.67064 4.46294,0.35041 4.4252,0.31559 4.4252,4.08304 0,2.21604 -0.0389,2.43845 -0.52537,3.00401 -0.52425,0.60948 -0.53123,0.61078 -3.28415,0.61078 -2.70643,0 -2.7681,-0.0108 -3.24936,-0.57033 -0.42574,-0.49495 -0.51002,-0.91068 -0.63766,-3.1455 -0.15816,-2.7692 -0.39743,-3.43697 -1.36303,-3.80409 C 101.11577,128.09359 99.54868,128 97.934202,128 c -4.490656,0 -4.65529,0.17437 -4.65529,4.93044 v 2.90629 h -7.945579 -7.945578 z"
     id="path11"
     transform="scale(0.75)" />
  <path
     style="fill:#f9f9f9;stroke-width:1.75748;stroke-linecap:round"
     d="m 137.35527,187.56007 c -1.05665,-0.46039 -1.192,-1.05735 -1.192,-5.25739 v -3.79928 h -8.05443 -8.05442 v -3.91837 -3.91836 h 8.05442 8.05443 v -8.59864 -8.59864 h 13.40271 13.40272 l -0.12399,-1.68708 c -0.0682,-0.92789 -0.22574,-3.84217 -0.3501,-6.47619 -0.31378,-6.64602 -0.56392,-7.88539 -1.71132,-8.47873 -0.3577,-0.18498 -1.75012,-0.48971 -3.09427,-0.67719 -2.83597,-0.39555 -3.50106,-0.67806 -3.91686,-1.66374 -0.39209,-0.9295 -0.40044,-4.65977 -0.012,-5.35402 0.4114,-0.73527 1.0172,-0.88355 4.21822,-1.03248 3.13846,-0.14602 3.97099,-0.34758 4.35765,-1.05499 0.13827,-0.25296 0.32051,-1.58647 0.40499,-2.96334 0.0845,-1.37687 0.22437,-2.67845 0.31088,-2.8924 0.33013,-0.81646 1.23831,-1.02596 4.44746,-1.02596 h 3.05843 v 7.94557 7.94558 h 8.70749 8.70748 v 13.27891 13.27891 l -0.81633,-0.009 c -2.02221,-0.0235 -5.94515,-0.60212 -6.48621,-0.95664 -1.13253,-0.74206 -1.18107,-1.02577 -1.82711,-10.68011 -0.36739,-5.49025 -0.49502,-5.65987 -4.25879,-5.65987 -3.58493,0 -4.02279,0.45659 -4.02531,4.19747 -0.002,2.37627 -0.34489,3.20641 -1.45322,3.51417 -0.45854,0.12733 -1.64502,0.23206 -2.63662,0.23272 -2.14064,0.002 -3.20721,0.37275 -3.56878,1.24239 -0.36354,0.87438 -0.36455,6.08816 -10e-4,6.94828 0.40485,0.95877 1.10494,1.20065 3.95872,1.36772 1.37723,0.0806 2.63621,0.22826 2.79772,0.32809 0.56691,0.35037 0.9023,1.62771 0.90353,3.44108 0.002,2.33482 0.28499,3.34915 1.04293,3.73257 0.32368,0.16373 1.709,0.36624 3.07849,0.45001 1.3695,0.0838 2.66521,0.24609 2.87937,0.3607 0.68137,0.36465 0.88711,1.08324 1.04941,3.66527 0.0871,1.38575 0.22327,2.66858 0.30258,2.85074 0.32429,0.74484 1.09902,0.94276 4.29188,1.09643 3.19849,0.15394 3.9348,0.33038 4.31084,1.03302 0.33324,0.62267 0.52359,3.37429 0.35666,5.15572 -0.11929,1.273 -0.27233,1.79269 -0.66097,2.24457 -0.49246,0.57259 -0.57865,0.59007 -3.28265,0.66585 -1.6909,0.0474 -3.10251,-0.0197 -3.60948,-0.17162 -1.34767,-0.40377 -1.48822,-0.90785 -1.48822,-5.33757 v -3.82034 h -8.16326 -8.16327 v 3.82034 c 0,4.28387 -0.15173,4.88748 -1.33199,5.29892 -0.3974,0.13853 -2.20794,0.24129 -4.25151,0.24129 h -3.55936 v -8.59864 -8.59864 h 3.82034 c 4.28388,0 4.88748,-0.15173 5.29892,-1.332 0.13271,-0.38068 0.24129,-2.04897 0.24129,-3.70729 v -3.01514 h -8.70748 -8.70749 v 12.62586 12.62585 l -3.64626,-0.009 c -2.52179,-0.006 -3.84928,-0.097 -4.30459,-0.29535 z"
     id="path12"
     transform="scale(0.75)" />
  <path
     style="fill:#f9f9f9;stroke-width:1.75748;stroke-linecap:round"
     d="m 181.39337,127.80255 c -1.12231,-0.099 -1.57935,-0.24475 -1.95919,-0.62492 -0.46231,-0.46273 -0.4954,-0.6768 -0.4954,-3.20484 0,-3.70507 -0.031,-3.67485 3.86865,-3.77347 4.72229,-0.11942 5.06088,0.14936 5.05076,4.00951 -0.007,2.56402 -0.30533,3.26735 -1.46198,3.44336 -1.39408,0.21213 -3.56306,0.27732 -5.00284,0.15036 z"
     id="path13"
     transform="scale(0.75)" />
  <path
     style="fill:#f9f9f9;stroke-width:1.75748;stroke-linecap:round"
     d="m 137.3387,187.5531 c -0.3712,-0.16159 -0.76195,-0.47612 -0.86834,-0.69896 -0.10639,-0.22284 -0.2435,-2.16843 -0.30469,-4.32353 l -0.11125,-3.91837 -8,-0.0571 -8,-0.0571 v -3.91569 -3.91568 h 8.05442 8.05443 v -8.59864 -8.59864 h 13.40913 13.40912 l -0.1231,-1.2517 c -0.0677,-0.68844 -0.18077,-2.72109 -0.25124,-4.51701 -0.32024,-8.16104 -0.67472,-10.28045 -1.81784,-10.86875 -0.31441,-0.16182 -1.68961,-0.45765 -3.05601,-0.65741 -2.88431,-0.42166 -3.54589,-0.7036 -3.96117,-1.68806 -0.39209,-0.9295 -0.40044,-4.65977 -0.012,-5.35402 0.41614,-0.74373 1.16727,-0.93431 4.17178,-1.05847 3.0899,-0.12769 4.03248,-0.34443 4.38817,-1.00904 0.13682,-0.25566 0.32163,-1.60633 0.41069,-3.00149 0.0891,-1.39517 0.27619,-2.75019 0.41585,-3.01115 0.3971,-0.74199 1.12113,-0.88902 4.3777,-0.88902 h 3.03344 v 7.94557 7.94558 h 8.70749 8.70748 v 13.27891 13.27891 l -0.92517,-0.007 c -1.99837,-0.016 -5.81287,-0.58886 -6.37545,-0.95747 -1.12779,-0.73896 -1.27421,-1.58049 -1.83311,-10.53555 -0.25566,-4.09629 -0.62671,-5.34043 -1.68037,-5.63431 -0.76065,-0.21216 -4.31986,-0.2089 -5.12873,0.005 -1.01674,0.2685 -1.29155,0.98532 -1.45617,3.79828 -0.0823,1.40593 -0.26762,2.77237 -0.41188,3.03652 -0.34155,0.62543 -1.49565,0.93168 -3.52245,0.9347 -3.64452,0.005 -3.99663,0.42855 -4.00441,4.81208 -0.008,4.29126 0.11448,4.42837 4.2042,4.72166 3.53994,0.25386 3.51618,0.23011 3.71684,3.71514 0.16024,2.78273 0.43981,3.58195 1.37366,3.92681 0.26313,0.0972 1.5272,0.234 2.80905,0.30407 3.52269,0.19257 3.62415,0.30005 3.86644,4.09589 0.23185,3.63223 0.29504,3.68429 4.74628,3.90989 4.49238,0.22769 4.51243,0.24893 4.51243,4.78264 0,4.09656 -0.25321,4.34406 -4.44428,4.34406 -2.79032,0 -3.8004,-0.22728 -4.21338,-0.94807 -0.17134,-0.29905 -0.30664,-1.87555 -0.37636,-4.38527 l -0.10884,-3.91837 h -8.05442 -8.05443 l -0.10884,4.02722 c -0.0599,2.21496 -0.19427,4.15965 -0.29868,4.32153 -0.4549,0.70526 -1.60334,0.90296 -5.24535,0.90296 h -3.59883 v -8.59864 -8.59864 h 3.70768 c 4.42692,0 5.06307,-0.17046 5.41893,-1.452 0.12733,-0.45854 0.23206,-2.13168 0.23272,-3.71807 l 0.001,-2.88436 h -8.70748 -8.70749 v 12.62586 12.62585 l -3.64626,-0.009 c -2.56556,-0.006 -3.84628,-0.0956 -4.32116,-0.30232 z"
     id="path14"
     transform="scale(0.75)" />
  <path
     style="fill:#f9f9f9;stroke-width:1.75748;stroke-linecap:round"
     d="m 137.33226,187.55039 c -0.37475,-0.16308 -0.76658,-0.42864 -0.87075,-0.59012 -0.10417,-0.16148 -0.23838,-2.10585 -0.29824,-4.32081 l -0.10885,-4.02722 -8,-0.0571 -8,-0.0571 v -3.91569 -3.91568 h 8.05442 8.05443 v -8.59864 -8.59864 h 13.40508 13.40508 l -0.12537,-1.36055 c -0.069,-0.7483 -0.22835,-3.56462 -0.35422,-6.2585 -0.33804,-7.23477 -0.59194,-8.40421 -1.9692,-9.06991 -0.28855,-0.13948 -1.5974,-0.41135 -2.90854,-0.60417 -3.01581,-0.4435 -3.61965,-0.77609 -3.99579,-2.20084 -0.3246,-1.2295 -0.22523,-4.13801 0.16636,-4.86971 0.38236,-0.71443 1.07903,-0.88093 4.5172,-1.07955 4.17875,-0.2414 4.15594,-0.2213 4.41334,-3.88931 0.10138,-1.44457 0.29661,-2.83631 0.43386,-3.09277 0.39244,-0.73327 1.12502,-0.88081 4.37331,-0.88081 h 3.03344 v 7.94557 7.94558 h 8.70749 8.70748 v 13.27891 13.27891 l -1.03401,-0.007 c -1.96396,-0.0134 -5.70101,-0.5872 -6.27523,-0.96345 -1.11408,-0.72997 -1.26439,-1.48809 -1.72818,-8.71654 -0.34252,-5.33831 -0.52658,-6.40643 -1.21436,-7.0472 -0.7927,-0.73851 -5.51487,-0.76329 -6.39416,-0.0336 -0.41813,0.34701 -0.76903,2.12769 -0.76903,3.90251 0,1.75691 -0.30824,2.76834 -0.94803,3.11075 -0.25678,0.13742 -1.59342,0.31491 -2.9703,0.3944 -2.74319,0.15839 -3.34719,0.38519 -3.69683,1.38815 -0.32436,0.93048 -0.27822,6.21468 0.0601,6.88357 0.41475,0.81998 1.10664,1.04182 3.9236,1.25801 3.43093,0.2633 3.41661,0.24873 3.63692,3.70022 0.2472,3.87272 0.31261,3.94239 3.9557,4.21381 1.66928,0.12436 2.84244,0.31731 3.14848,0.51783 0.62765,0.41126 0.94172,1.56817 0.94476,3.4802 0.003,1.94159 0.31855,3.06987 0.97933,3.50284 0.37534,0.24593 1.41356,0.3913 3.68899,0.51653 4.56914,0.25147 4.58339,0.26641 4.58339,4.80664 0,4.10347 -0.24833,4.34406 -4.48375,4.34406 -2.62302,0 -3.83522,-0.25746 -4.25158,-0.90296 -0.10442,-0.16188 -0.23882,-2.10657 -0.29869,-4.32153 l -0.10884,-4.02722 h -8.05442 -8.05443 l -0.10884,4.02722 c -0.0599,2.21496 -0.19427,4.15965 -0.29868,4.32153 -0.4549,0.70526 -1.60334,0.90296 -5.24535,0.90296 h -3.59883 v -8.58136 -8.58135 l 4.02271,-0.0717 4.02271,-0.0717 0.60314,-0.60358 c 0.59901,-0.59945 0.60368,-0.62669 0.68083,-3.97279 l 0.0777,-3.36921 h -8.73074 -8.73075 v 12.62586 12.62585 l -3.64626,-0.009 c -2.58204,-0.006 -3.84512,-0.0951 -4.3276,-0.30503 z"
     id="path15"
     transform="scale(0.75)" />
  <path
     style="fill:#f9f9f9;stroke-width:1.75748;stroke-linecap:round"
     d="m 68.027211,166.63946 v -21.22449 h 21.22449 21.224489 v 21.22449 21.22449 H 89.251701 68.027211 Z m 34.829929,-0.65307 V 153.2517 H 90.013605 77.170068 v 12.73469 12.7347 h 12.843537 12.843535 z"
     id="path16"
     transform="scale(0.75)" />
  <path
     style="fill:#f9f9f9;stroke-width:1.75748;stroke-linecap:round"
     d="m 87.786071,170.46665 c -1.939768,-0.20376 -2.204878,-0.58812 -2.306913,-3.34453 -0.09596,-2.59217 0.225901,-3.71924 1.16394,-4.07589 0.922357,-0.35068 4.810641,-0.27075 5.555035,0.11419 0.817276,0.42263 0.971935,1.01241 0.971935,3.70639 0,2.39247 -0.317241,3.26649 -1.254454,3.45611 -1.006306,0.20359 -2.924188,0.27034 -4.129543,0.14373 z"
     id="path17"
     transform="scale(0.75)" />
</svg>
